P2
100 50
256
2
2
2
2
2
2
2
2
2
2
2
2
2
2
2
2
2
2
2
2
2
2
2
2
2
2
2
2
2
2
2
2
2
2
2
2
2
2
2
2
2
2
2
2
2
2
2
2
2
2
2
2
2
2
2
2
2
2
2
2
2
2
2
2
2
2
2
2
2
2
2
2
2
2
2
2
2
2
2
2
2
2
2
2
2
1
1
1
1
1
1
1
1
1
1
1
1
1
1
1
2
2
2
2
2
2
2
2
2
2
2
2
2
2
2
2
2
2
2
2
2
2
2
2
2
2
2
2
2
2
2
2
2
2
2
2
2
2
2
2
3
3
3
3
3
3
3
3
3
3
2
2
2
2
2
2
2
2
2
2
2
2
2
2
2
2
2
2
2
2
2
2
2
2
2
2
2
2
2
2
2
2
2
2
2
2
2
2
2
2
2
1
1
1
1
1
1
1
1
1
2
2
2
2
2
2
2
2
2
2
2
2
2
2
2
2
2
2
2
2
2
2
2
2
2
2
2
2
2
2
3
3
3
3
3
3
3
3
3
3
3
3
3
3
3
3
3
3
3
3
3
3
3
3
3
3
3
3
3
3
2
2
2
2
2
2
2
2
2
2
2
2
2
2
2
2
2
2
2
2
2
2
2
2
2
2
2
2
2
2
2
2
2
2
2
2
1
1
1
1
2
2
2
2
2
2
2
2
2
2
2
2
2
2
2
2
2
2
2
2
2
2
2
2
3
3
3
3
3
3
3
3
3
3
3
3
3
3
3
3
3
3
4
4
4
4
5
5
5
5
4
4
4
4
3
3
3
3
3
3
3
3
3
3
3
3
2
2
2
2
2
2
2
2
2
2
2
2
2
2
2
2
2
2
2
2
2
2
2
2
2
2
2
2
2
2
2
2
2
2
2
2
2
2
2
2
2
2
2
2
2
2
2
2
2
2
2
2
2
2
3
3
3
3
3
3
3
3
3
3
3
3
3
3
3
3
3
3
4
4
4
4
4
4
5
5
9
17
176
10
6
5
4
4
4
4
4
3
3
3
3
3
3
3
3
3
3
3
3
3
2
2
2
2
2
2
2
2
2
2
2
2
2
2
2
2
2
2
2
2
2
2
2
2
2
2
2
2
2
2
2
2
2
2
2
2
2
2
2
2
2
2
2
2
2
3
3
3
3
3
3
3
3
3
3
3
3
3
3
3
3
3
3
3
3
4
4
4
4
4
4
4
5
6
6
8
256
256
256
256
256
8
6
5
4
4
4
4
4
3
3
3
3
3
3
3
3
3
3
3
3
3
3
3
2
2
2
2
2
2
2
2
2
2
2
2
2
2
2
2
2
2
2
2
2
2
2
2
2
2
2
2
2
2
2
2
2
2
2
2
2
2
3
3
3
3
3
3
3
3
3
3
3
3
3
3
3
3
3
3
3
3
4
4
4
4
4
4
4
5
5
6
256
256
59
23
18
178
138
256
256
256
30
6
5
5
4
4
4
4
4
4
3
3
3
3
3
3
3
3
3
3
3
3
3
3
3
3
2
2
2
2
2
2
2
2
2
2
2
2
2
2
2
2
2
2
2
2
2
2
2
2
2
2
2
2
2
2
3
3
3
3
3
3
3
3
3
3
3
3
3
3
3
3
3
3
3
3
3
4
4
4
4
4
4
5
5
5
5
6
6
7
10
20
59
54
256
69
49
25
18
44
10
7
6
6
5
5
5
4
4
4
4
4
3
3
3
3
3
3
3
3
3
3
3
3
3
3
3
3
3
2
2
2
2
2
2
2
2
2
2
2
2
2
2
2
2
2
2
2
2
2
2
2
3
3
3
3
3
3
3
3
3
3
3
3
3
3
3
3
3
3
3
3
3
4
4
4
4
4
4
5
5
5
5
5
5
6
6
6
7
256
214
83
256
256
178
189
256
256
256
18
11
9
7
7
6
5
5
5
5
5
4
4
4
4
3
3
3
3
3
3
3
3
3
3
3
3
3
3
3
3
3
3
2
2
2
2
2
2
2
2
2
2
2
2
2
2
2
2
3
3
3
3
3
3
3
3
3
3
3
3
3
3
3
3
3
4
4
4
4
4
4
4
4
4
5
5
6
6
6
6
6
6
6
6
7
7
7
8
8
44
227
75
199
133
256
256
256
256
217
119
256
89
28
210
226
8
7
6
6
6
5
5
4
4
4
4
3
3
3
3
3
3
3
3
3
3
3
3
3
3
3
3
3
3
3
2
2
2
2
2
2
2
2
2
2
2
2
2
3
3
3
3
3
4
4
4
4
4
4
4
4
4
4
4
4
4
4
4
4
4
4
5
5
5
6
9
256
256
11
9
11
10
144
117
201
256
10
9
10
12
21
256
181
256
256
256
256
256
256
176
160
76
256
86
48
61
10
9
9
165
10
29
7
5
5
4
4
4
4
3
3
3
3
3
3
3
3
3
3
3
3
3
3
3
3
3
3
3
2
2
2
2
2
2
2
2
2
2
4
4
4
4
4
4
4
4
4
4
4
4
4
4
4
4
4
4
4
5
5
5
5
5
6
6
8
62
73
256
256
256
112
74
57
256
39
182
29
256
13
14
24
256
256
148
196
256
256
256
256
157
117
256
109
106
111
19
18
256
256
256
230
36
9
6
5
5
5
4
4
4
4
4
4
4
3
3
3
3
3
3
3
3
3
3
3
3
3
3
3
3
3
2
2
2
2
2
2
2
6
6
5
5
5
5
5
5
5
4
4
4
4
5
5
5
5
5
5
5
5
5
6
6
7
7
8
10
214
256
235
189
252
245
256
36
25
21
19
18
17
17
25
256
65
103
170
256
135
256
256
123
256
72
73
256
256
256
93
165
256
256
86
12
8
7
6
5
5
5
5
4
4
4
4
4
4
4
4
4
4
4
3
3
3
3
3
3
3
3
3
3
3
3
3
3
2
2
2
2
170
256
197
7
7
6
6
7
8
7
6
6
6
5
5
5
5
5
5
6
6
6
8
8
9
256
256
98
17
22
256
158
71
74
130
124
97
23
22
53
21
22
28
37
105
165
256
256
176
99
89
256
256
57
54
256
132
73
75
91
195
84
41
31
10
8
7
6
5
5
5
5
5
4
4
4
4
4
4
4
4
4
4
4
4
4
4
4
4
3
3
3
3
3
3
3
3
3
3
2
256
256
145
117
256
179
38
256
256
256
9
8
7
6
6
6
6
6
7
7
7
8
256
256
207
256
171
28
25
256
118
78
152
256
63
62
37
33
142
256
119
59
256
222
256
52
74
65
69
74
124
242
124
256
39
161
85
89
256
41
256
256
256
159
256
41
10
7
6
5
5
5
5
5
5
5
4
4
4
4
4
4
4
4
4
4
4
4
4
4
4
4
4
4
4
3
3
3
3
3
256
256
256
256
256
75
256
130
99
71
256
256
11
8
8
7
7
7
7
8
9
12
256
20
41
57
256
211
142
196
218
256
75
59
54
141
256
256
256
69
187
141
121
218
178
58
67
151
90
228
76
68
255
235
30
179
256
243
92
25
163
212
256
64
40
12
8
7
7
6
6
6
5
5
5
5
5
5
5
5
5
5
4
4
4
4
4
4
5
5
5
5
5
5
5
4
4
4
3
3
33
146
110
256
91
119
41
56
256
27
66
94
194
11
9
9
9
9
10
12
256
256
256
40
62
79
70
158
256
93
86
219
123
256
256
154
256
256
113
93
74
75
256
152
104
60
256
256
108
122
137
101
167
256
217
24
21
20
20
21
22
24
202
179
251
36
9
7
7
7
6
6
6
6
6
6
6
6
6
6
6
6
6
6
6
6
5
5
5
5
6
6
7
7
13
70
7
5
4
4
47
156
55
82
256
209
188
66
21
20
53
256
138
12
11
10
11
12
125
60
30
256
76
256
114
256
161
125
117
231
141
256
124
125
105
101
93
85
81
90
71
66
62
57
53
52
54
256
125
256
48
143
50
24
21
19
18
18
18
19
256
31
136
86
256
10
9
8
8
7
7
7
7
7
6
6
6
7
7
7
10
20
162
9
8
7
7
7
7
7
8
136
256
31
120
124
117
7
5
5
234
256
57
59
256
43
179
21
19
18
17
16
14
13
13
13
147
169
30
181
73
256
175
147
256
256
155
256
178
159
256
190
256
256
180
157
211
172
118
256
256
256
240
256
55
51
46
42
37
35
36
67
25
21
20
18
18
17
16
16
16
16
14
13
11
10
9
9
8
8
8
8
8
8
10
19
9
9
10
11
77
256
256
256
35
197
59
66
10
10
256
256
256
215
170
17
10
7
6
5
220
256
256
256
256
36
38
213
256
20
18
18
17
17
256
256
34
256
77
119
256
256
256
204
205
256
220
256
256
256
200
185
256
256
151
145
134
137
120
123
189
256
108
256
213
256
256
186
40
35
32
31
57
256
256
20
17
16
16
15
14
13
13
12
11
11
10
10
10
10
11
11
11
12
18
236
235
57
28
22
20
73
256
87
121
46
23
256
16
15
240
156
256
256
220
137
46
30
9
6
117
102
256
96
256
256
256
93
256
182
229
218
256
80
39
256
79
180
243
157
201
256
256
256
256
256
256
256
256
256
248
229
216
201
192
229
171
256
130
256
103
100
127
100
121
169
256
118
57
256
248
172
232
256
256
20
18
17
16
15
14
14
14
13
12
12
13
215
14
15
19
216
97
155
256
45
61
256
41
56
189
256
98
213
196
136
23
22
21
256
126
76
225
158
202
256
256
28
16
28
142
256
105
234
69
79
256
122
153
256
206
256
170
174
256
256
115
256
196
256
245
256
256
256
256
256
256
256
256
256
256
256
249
256
219
256
162
153
256
184
134
256
174
84
85
225
138
256
112
69
78
256
102
133
256
226
22
20
29
116
19
17
17
239
159
31
256
33
189
256
38
99
256
58
256
231
72
256
106
256
256
71
64
54
196
256
256
153
256
183
50
256
92
85
256
64
58
256
121
256
239
256
256
256
256
55
61
256
58
51
51
92
256
102
256
229
145
256
199
248
256
256
256
256
256
256
256
256
256
256
256
256
256
256
256
202
256
256
139
135
205
190
99
95
75
70
70
73
256
255
118
256
85
135
40
35
130
27
136
176
207
53
32
29
138
254
49
64
82
97
250
97
256
129
256
141
256
121
180
256
175
256
256
135
256
99
93
197
87
148
256
126
162
256
138
34
63
256
54
158
122
81
256
199
48
54
256
256
256
80
64
73
157
130
116
256
256
256
256
256
256
256
256
256
256
256
256
256
256
256
256
256
256
230
256
45
171
172
235
256
118
256
256
116
68
65
67
69
256
256
180
108
256
91
42
35
35
35
50
256
70
197
51
256
256
80
101
117
164
20
256
256
157
256
174
256
256
175
162
167
146
128
223
118
256
115
256
69
64
55
53
256
256
53
89
36
21
20
22
27
68
256
155
37
35
40
86
256
256
78
73
76
256
256
256
140
153
256
219
256
256
256
256
256
256
256
256
256
256
256
256
256
245
256
197
217
256
81
160
256
102
256
103
171
118
256
57
68
256
122
217
256
119
53
53
45
176
256
144
238
86
74
193
256
127
256
256
160
256
256
221
256
228
256
242
256
256
256
239
256
256
170
151
139
142
122
148
112
256
75
124
256
34
31
25
21
18
17
16
14
14
15
16
18
19
45
248
119
61
216
153
93
91
98
256
219
242
183
186
202
241
256
256
256
256
256
256
256
256
256
245
248
213
235
168
184
129
245
143
193
144
136
138
211
71
53
51
52
54
59
256
59
54
52
51
53
69
203
138
123
144
193
143
245
129
184
168
235
213
248
245
256
256
256
256
256
256
256
256
256
241
202
186
183
242
256
256
98
91
93
153
216
61
119
248
45
19
18
16
15
12
14
16
17
18
21
25
31
34
256
124
75
256
112
147
122
142
139
151
170
256
256
256
256
256
256
242
256
228
256
221
86
256
160
256
256
127
256
256
74
86
251
144
256
256
45
53
53
119
256
217
122
256
68
57
256
118
172
103
255
102
256
160
155
256
217
197
256
245
256
256
36
256
256
256
256
256
256
256
256
256
75
219
256
153
140
256
256
256
76
73
78
256
256
86
40
35
37
155
256
149
27
22
20
21
35
89
53
256
256
53
55
64
69
256
115
256
118
223
170
146
167
162
175
256
256
174
256
157
256
256
256
164
117
101
80
217
256
51
197
70
256
50
35
35
35
42
91
4
108
256
256
256
69
67
65
68
116
256
256
118
256
235
139
171
249
256
230
256
256
256
256
256
256
256
256
256
256
256
256
256
256
256
256
256
256
116
130
157
73
64
80
240
256
256
54
48
66
256
81
146
256
54
256
63
34
138
256
162
126
256
148
87
200
93
99
256
135
256
256
175
256
180
121
256
141
228
129
256
97
251
97
82
64
49
189
138
29
32
53
256
176
136
27
129
35
40
135
85
256
118
256
256
73
70
70
75
95
99
190
206
135
139
256
256
202
256
256
256
256
256
256
181
256
256
256
256
256
256
256
256
248
199
256
145
230
256
102
256
92
51
51
58
256
61
55
256
256
256
256
40
256
121
256
58
64
256
85
91
256
50
256
256
256
256
218
195
54
64
71
217
256
106
256
72
232
256
58
256
99
38
256
191
33
256
31
159
192
17
17
19
117
29
20
22
227
256
133
102
256
78
69
112
256
150
225
85
84
174
256
134
184
256
153
162
256
219
256
249
256
256
256
256
256
256
256
256
256
256
256
180
256
196
256
115
256
256
174
170
256
256
256
153
122
256
79
69
234
105
256
25
28
16
28
256
256
202
158
122
256
126
256
21
22
23
136
199
213
100
256
204
56
41
256
61
45
256
256
97
216
19
15
14
214
13
12
12
13
14
14
14
15
16
17
18
20
256
256
232
172
247
256
57
118
256
169
121
100
127
100
103
255
130
256
171
229
192
201
216
229
248
256
256
256
256
256
256
256
256
256
201
157
243
180
79
256
39
80
113
256
229
175
256
93
256
256
256
96
256
102
6
6
9
30
46
161
256
256
256
156
247
15
16
256
23
46
121
87
256
73
20
22
28
57
232
256
18
12
11
11
11
10
10
10
10
11
11
12
13
13
14
15
16
16
17
20
256
241
57
31
32
35
40
186
256
256
213
256
256
256
189
123
120
136
134
145
151
256
256
185
200
224
256
256
220
256
205
204
256
256
256
120
77
256
34
256
256
17
17
18
18
20
256
213
38
36
256
256
208
256
5
5
6
7
10
17
170
215
256
256
217
10
10
66
59
199
35
256
256
256
77
11
10
9
9
19
10
8
8
8
8
8
8
256
9
10
11
13
14
16
16
16
16
17
18
18
20
21
25
67
36
35
37
42
46
51
55
256
256
237
256
135
118
172
211
157
180
256
256
190
256
159
178
256
155
256
256
147
175
256
73
181
30
168
75
13
13
13
14
16
17
18
19
21
179
43
219
59
57
256
4
5
5
8
117
124
120
31
88
136
8
7
7
7
7
7
8
9
162
20
10
7
7
7
6
6
6
7
7
7
7
7
8
8
9
10
219
86
136
31
256
19
18
18
18
19
21
24
50
172
48
256
125
256
54
52
53
57
62
66
71
90
81
85
93
101
105
125
124
256
141
238
117
125
161
256
114
209
76
256
30
60
125
12
11
10
11
12
138
256
53
20
21
65
188
210
256
82
55
156
4
4
4
5
7
70
13
7
7
6
6
5
5
5
5
6
6
6
6
6
6
6
6
6
6
6
6
6
6
6
6
7
7
7
9
36
249
256
221
24
22
21
20
20
21
24
216
256
167
101
248
122
108
256
256
60
103
152
256
75
74
93
113
256
242
154
256
256
123
220
86
93
256
158
70
79
62
40
122
256
256
12
10
9
9
9
9
11
194
94
67
27
256
56
41
119
91
256
110
146
3
3
3
4
4
4
5
5
5
5
5
5
5
4
4
4
4
4
4
5
5
5
5
5
5
5
5
5
5
6
6
6
7
7
8
12
40
64
248
211
165
25
92
256
256
178
30
227
254
68
76
229
90
151
67
58
178
218
121
141
182
69
256
256
256
141
54
59
75
256
220
245
256
256
256
57
41
20
256
12
9
8
7
7
7
7
8
8
11
256
256
71
99
126
256
75
256
256
256
256
3
3
3
3
3
3
4
4
4
4
4
4
4
4
4
4
4
4
4
4
4
4
4
4
4
5
5
5
5
5
5
5
6
7
10
41
256
159
256
256
256
41
256
89
85
161
39
256
124
242
124
74
69
65
74
52
205
222
256
59
118
256
140
33
37
62
63
256
151
77
118
256
25
28
256
256
207
256
256
8
7
7
7
6
6
6
6
6
7
8
9
256
256
256
38
180
256
117
145
256
2
2
3
3
3
3
3
3
3
3
3
3
4
4
4
4
4
4
4
4
4
4
4
4
4
4
4
4
5
5
5
5
5
6
7
8
10
31
41
84
195
91
75
73
132
256
54
57
213
256
89
99
176
256
218
256
105
37
28
22
21
53
22
23
97
124
130
74
71
158
256
22
17
98
206
256
9
8
8
6
6
6
5
5
5
5
5
5
6
6
6
7
8
7
6
6
7
7
256
256
2
2
2
2
2
3
3
3
3
3
3
3
3
3
3
3
3
3
3
4
4
4
4
4
4
4
4
4
4
4
5
5
5
5
6
7
8
12
86
256
256
165
93
209
256
256
73
72
256
123
242
256
135
256
170
103
65
123
25
17
17
18
19
21
25
36
256
256
252
189
235
256
213
10
8
7
7
6
6
5
5
5
5
5
5
5
5
5
4
4
4
4
5
5
5
5
5
5
5
6
2
2
2
2
2
2
2
2
3
3
3
3
3
3
3
3
3
3
3
3
3
3
3
3
3
4
4
4
4
4
4
4
5
5
5
6
9
36
111
256
256
256
18
19
111
106
109
256
117
157
248
256
256
256
196
148
204
256
24
14
13
256
29
181
39
256
57
74
112
256
256
256
73
62
8
6
6
5
5
5
5
5
4
4
4
4
4
4
4
4
4
4
4
4
4
4
4
4
4
4
2
2
2
2
2
2
2
2
2
2
2
3
3
3
3
3
3
3
3
3
3
3
3
3
3
3
3
3
3
3
4
4
4
4
5
5
7
29
10
165
9
9
10
61
48
86
256
76
160
176
256
256
256
256
256
256
181
256
21
12
10
9
10
256
256
117
144
10
11
9
11
256
256
9
6
5
5
5
4
4
4
4
4
4
4
4
4
4
4
4
4
4
4
4
4
4
3
3
3
3
2
2
2
2
2
2
2
2
2
2
2
2
2
2
3
3
3
3
3
3
3
3
3
3
3
3
3
3
3
3
3
3
3
4
4
4
4
5
5
6
6
6
7
8
226
256
28
89
256
119
217
256
256
256
256
256
200
75
229
44
8
8
7
7
7
6
6
6
6
6
6
6
6
5
5
4
4
4
4
4
4
4
4
4
3
3
3
3
3
3
3
3
3
3
3
3
3
3
3
3
2
2
2
2
2
2
2
2
2
2
2
2
2
2
2
2
2
3
3
3
3
3
3
3
3
3
3
3
3
3
3
3
3
3
3
4
4
4
4
5
5
5
5
5
6
7
7
9
11
18
256
256
256
189
178
256
256
83
213
219
7
6
6
6
5
5
5
5
5
5
4
4
4
4
4
4
3
3
3
3
3
3
3
3
3
3
3
3
3
3
3
3
3
3
3
3
3
2
2
2
2
2
2
2
2
2
2
2
2
2
2
2
2
2
2
2
2
2
2
2
3
3
3
3
3
3
3
3
3
3
3
3
3
3
3
3
3
4
4
4
4
4
5
5
5
6
6
7
10
44
18
25
49
69
239
54
59
20
10
7
6
6
5
5
5
5
4
4
4
4
4
4
3
3
3
3
3
3
3
3
3
3
3
3
3
3
3
3
3
3
3
3
3
2
2
2
2
2
2
2
2
2
2
2
2
2
2
2
2
2
2
2
2
2
2
2
2
2
2
2
2
2
2
3
3
3
3
3
3
3
3
3
3
3
3
3
3
3
3
4
4
4
4
4
4
5
5
6
30
256
172
256
138
183
18
23
60
26
256
6
5
5
4
4
4
4
4
4
4
3
3
3
3
3
3
3
3
3
3
3
3
3
3
3
3
3
3
3
3
2
2
2
2
2
2
2
2
2
2
2
2
2
2
2
2
2
2
2
2
2
2
2
2
2
2
2
2
2
2
2
2
2
2
2
2
2
2
3
3
3
3
3
3
3
3
3
3
3
3
3
3
3
4
4
4
4
4
5
6
8
256
256
256
256
256
8
6
6
5
4
4
4
4
4
4
4
3
3
3
3
3
3
3
3
3
3
3
3
3
3
3
3
3
3
3
3
2
2
2
2
2
2
2
2
2
2
2
2
2
2
2
2
2
2
2
2
2
2
2
2
2
2
2
2
2
2
2
2
2
2
2
2
2
2
2
2
2
2
2
2
2
3
3
3
3
3
3
3
3
3
3
3
3
3
4
4
4
4
4
5
6
10
176
17
9
5
5
4
4
4
4
4
4
3
3
3
3
3
3
3
3
3
3
3
3
3
3
3
3
3
3
2
2
2
2
2
2
2
2
2
2
2
2
2
2
2
2
2
2
2
1
2
2
2
2
2
2
2
2
2
2
2
2
2
2
2
2
2
2
2
2
2
2
2
2
2
2
2
2
2
2
2
2
2
2
3
3
3
3
3
3
3
3
3
3
3
3
4
4
4
4
5
5
5
5
4
4
4
4
3
3
3
3
3
3
3
3
3
3
3
3
3
3
3
3
3
3
2
2
2
2
2
2
2
2
2
2
2
2
2
2
2
2
2
2
2
2
2
2
2
1
1
1
1
1
2
2
2
2
2
2
2
2
2
2
2
2
2
2
2
2
2
2
2
2
2
2
2
2
2
2
2
2
2
2
2
2
2
2
2
2
3
3
3
3
3
3
3
3
3
3
3
3
3
3
3
3
3
3
3
3
3
3
3
3
3
3
3
3
3
3
2
2
2
2
2
2
2
2
2
2
2
2
2
2
2
2
2
2
2
2
2
2
2
2
2
2
2
2
2
1
1
1
1
1
1
1
1
1
1
2
2
2
2
2
2
2
2
2
2
2
2
2
2
2
2
2
2
2
2
2
2
2
2
2
2
2
2
2
2
2
2
2
2
2
2
2
2
2
2
2
3
3
3
3
3
3
3
3
3
3
2
2
2
2
2
2
2
2
2
2
2
2
2
2
2
2
2
2
2
2
2
2
2
2
2
2
2
2
2
2
2
2
2
2
2
2
2
2
2
